<svg xmlns="http://www.w3.org/2000/svg" xmlns:xlink="http://www.w3.org/1999/xlink" preserveAspectRatio="xMidYMid meet" width="130" height="158" viewBox="0 0 130 158" style="width:100%;height:100%"><defs><animate repeatCount="indefinite" dur="3.003003s" begin="0s" xlink:href="#_R_G_L_9_G_M" fill="freeze" attributeName="opacity" from="1" to="0" keyTimes="0;0.2888889;0.2888889;1" values="1;1;0;0" keySplines="0 0 0 0;0 0 0 0;0 0 0 0" calcMode="spline"/><animate repeatCount="indefinite" dur="3.003003s" begin="0s" xlink:href="#_R_G_L_8_G_M" fill="freeze" attributeName="opacity" from="0" to="0" keyTimes="0;0.2888889;0.28889;0.4222222;0.4222222;1" values="0;0;1;1;0;0" keySplines="0 0 0 0;0 0 0 0;0 0 0 0;0 0 0 0;0 0 0 0" calcMode="spline"/><animate repeatCount="indefinite" dur="3.003003s" begin="0s" xlink:href="#_R_G_L_7_G_M" fill="freeze" attributeName="opacity" from="0" to="0" keyTimes="0;0.4222222;0.4222233;0.5666667;0.5666667;1" values="0;0;1;1;0;0" keySplines="0 0 0 0;0 0 0 0;0 0 0 0;0 0 0 0;0 0 0 0" calcMode="spline"/><animate repeatCount="indefinite" dur="3.003003s" begin="0s" xlink:href="#_R_G_L_6_G_M" fill="freeze" attributeName="opacity" from="0" to="0" keyTimes="0;0.5666667;0.5666678;0.7;0.7;1" values="0;0;1;1;0;0" keySplines="0 0 0 0;0 0 0 0;0 0 0 0;0 0 0 0;0 0 0 0" calcMode="spline"/><animate repeatCount="indefinite" dur="3.003003s" begin="0s" xlink:href="#_R_G_L_5_G_M" fill="freeze" attributeName="opacity" from="0" to="1" keyTimes="0;0.6888889;0.68889;1" values="0;0;1;1" keySplines="0 0 0 0;0 0 0 0;0 0 0 0" calcMode="spline"/><animate repeatCount="indefinite" dur="3.003003s" begin="0s" xlink:href="#_R_G_L_4_G_M" fill="freeze" attributeName="opacity" from="1" to="0" keyTimes="0;0.8555556;0.8555556;1" values="1;1;0;0" keySplines="0 0 0 0;0 0 0 0;0 0 0 0" calcMode="spline"/><animate repeatCount="indefinite" dur="3.003003s" begin="0s" xlink:href="#_R_G_L_3_G_M" fill="freeze" attributeName="opacity" from="0" to="0" keyTimes="0;0.8555556;0.8555567;0.9222222;0.9222222;1" values="0;0;1;1;0;0" keySplines="0 0 0 0;0 0 0 0;0 0 0 0;0 0 0 0;0 0 0 0" calcMode="spline"/><animate repeatCount="indefinite" dur="3.003003s" begin="0s" xlink:href="#_R_G_L_2_G_M" fill="freeze" attributeName="opacity" from="0" to="1" keyTimes="0;0.9222222;0.9222233;1" values="0;0;1;1" keySplines="0 0 0 0;0 0 0 0;0 0 0 0" calcMode="spline"/><animate repeatCount="indefinite" dur="3.003003s" begin="0s" xlink:href="#_R_G_L_1_G_M" fill="freeze" attributeName="opacity" from="0" to="0" keyTimes="0;0.3;0.3000011;0.4222222;0.4222222;1" values="0;0;1;1;0;0" keySplines="0 0 0 0;0 0 0 0;0 0 0 0;0 0 0 0;0 0 0 0" calcMode="spline"/><animate repeatCount="indefinite" dur="3.003003s" begin="0s" xlink:href="#_R_G_L_0_G_M" fill="freeze" attributeName="opacity" from="0" to="0" keyTimes="0;0.5777778;0.5777789;0.7;0.7;1" values="0;0;1;1;0;0" keySplines="0 0 0 0;0 0 0 0;0 0 0 0;0 0 0 0;0 0 0 0" calcMode="spline"/><animate attributeType="XML" attributeName="opacity" dur="3s" from="0" to="1" xlink:href="#time_group"/></defs><g id="_R_G"><g id="_R_G_L_10_G" transform=" translate(65, 79) translate(-45.5, -81)"><path id="_R_G_L_10_G_D_0_P_0" fill="#eb9d73" fill-opacity="1" fill-rule="nonzero" d=" M27.42 85.04 C27.42,85.04 15.43,99.94 15.43,104.17 C15.43,108.39 17.55,115.02 24.88,110.91 C31.36,107.28 31.08,99.26 31.08,99.26 C31.08,99.26 27.42,85.04 27.42,85.04z "/><path id="_R_G_L_10_G_D_1_P_0" fill="#eb9d73" fill-opacity="1" fill-rule="nonzero" d=" M37.01 79.61 C37.01,79.61 32.04,81.44 32.04,81.44 C32.04,81.44 27.19,118.21 27.19,118.21 C27.19,118.21 58.03,118.21 58.03,118.21 C58.03,118.21 53.11,81.44 53.11,81.44 C53.11,81.44 49.69,79.96 49.69,79.96 C49.69,79.96 37.01,79.61 37.01,79.61z "/><path id="_R_G_L_10_G_D_2_P_0" fill="#eb9d73" fill-opacity="1" fill-rule="nonzero" d=" M57.74 85.04 C57.74,85.04 67.44,117.65 67.44,117.65 C67.44,117.65 61.33,119.95 61.33,119.95 C61.33,119.95 51.06,92.52 51.06,92.52 C51.06,92.52 57.74,85.04 57.74,85.04z "/><path id="_R_G_L_10_G_D_3_P_0" fill="#804f1b" fill-opacity="1" fill-rule="nonzero" d=" M28.05 124.83 C28.05,124.83 32.97,154.37 32.97,154.37 C32.97,154.37 40.06,156.71 40.06,156.71 C40.06,156.71 41.44,137.24 41.44,137.24 C41.44,137.24 42.58,131.56 42.58,131.56 C42.58,131.56 43.72,137.24 43.72,137.24 C43.72,137.24 45.09,156.71 45.09,156.71 C45.09,156.71 52.19,154.37 52.19,154.37 C52.19,154.37 57.11,124.83 57.11,124.83 C57.11,124.83 28.05,124.83 28.05,124.83z "/><path id="_R_G_L_10_G_D_4_P_0" fill="#ffd400" fill-opacity="1" fill-rule="nonzero" d=" M42.58 140.83 C56.26,140.83 62.38,135.96 62.38,135.96 C62.38,135.96 57.74,85.04 57.74,85.04 C57.74,85.04 53.11,81.44 53.11,81.44 C53.11,81.44 51.57,91.72 51.57,91.72 C51.57,91.72 42.58,91.72 42.58,91.72 C42.58,91.72 33.59,91.72 33.59,91.72 C33.59,91.72 32.04,81.44 32.04,81.44 C32.04,81.44 27.42,85.04 27.42,85.04 C27.42,85.04 22.77,135.96 22.77,135.96 C22.77,135.96 28.9,140.83 42.58,140.83z "/><path id="_R_G_L_10_G_D_5_P_0" fill="#ffe1cc" fill-opacity="1" fill-rule="nonzero" d=" M72.73 53.18 C72.73,69.83 59.23,83.33 42.58,83.33 C25.92,83.33 12.42,69.83 12.42,53.18 C12.42,36.53 25.92,23.03 42.58,23.03 C59.23,23.03 72.73,36.53 72.73,53.18z "/><path id="_R_G_L_10_G_D_6_P_0" fill="#5b2e18" fill-opacity="1" fill-rule="nonzero" d=" M44.64 60.03 C44.64,60.41 43.71,60.72 42.58,60.72 C41.45,60.72 40.52,60.41 40.52,60.03 C40.52,59.65 41.45,59.35 42.58,59.35 C43.71,59.35 44.64,59.65 44.64,60.03z "/><path id="_R_G_L_10_G_D_7_P_0" fill="#f47a00" fill-opacity="1" fill-rule="nonzero" d=" M40.14 154.37 C38.32,152.55 33.31,150.54 29.31,154.54 C25.32,158.54 28.72,161.68 28.72,161.68 C28.72,161.68 39.52,161.68 39.52,161.68 C42.26,161.68 41.97,156.2 40.14,154.37z "/><path id="_R_G_L_10_G_D_8_P_0" fill="#f47a00" fill-opacity="1" fill-rule="nonzero" d=" M45.02 154.37 C46.84,152.55 51.84,150.54 55.84,154.54 C59.84,158.54 56.44,161.68 56.44,161.68 C56.44,161.68 45.63,161.68 45.63,161.68 C42.89,161.68 43.19,156.2 45.02,154.37z "/><path id="_R_G_L_10_G_D_9_P_0" stroke="#00628a" stroke-linecap="round" stroke-linejoin="round" fill="none" stroke-width="1.891" stroke-opacity="1" d=" M50.49 43.52 C50.49,43.52 57.04,38.95 61.61,46.26 "/><path id="_R_G_L_10_G_D_10_P_0" stroke="#804f1b" stroke-linecap="round" stroke-linejoin="round" fill="none" stroke-width="1.891" stroke-opacity="1" d=" M34.54 42.85 C34.54,42.85 27.49,37.99 23.85,45.81 "/><path id="_R_G_L_10_G_D_11_P_0" fill="#00628a" fill-opacity="1" fill-rule="nonzero" d=" M85.44 32.78 C83.28,28.12 79.36,26.8 75.97,26.65 C76.59,21.25 75.31,11.16 56.66,12 C56.66,12 45.45,0.25 24.67,6.88 C7.29,12.42 5.22,27.97 6.86,33.78 C6.86,33.78 1.23,34.57 0.69,42.93 C0.25,49.8 2.87,53.23 5.07,54.88 C4.28,55.79 3.81,57.24 4.35,59.51 C7.07,70.93 16.39,68.12 16.39,68.12 C16.39,68.12 9.19,54.68 9.19,54.68 C10.23,53.77 11.81,53.04 13.68,54.38 C16.47,56.35 19.25,48.69 18.93,45.7 C18.93,45.7 21.31,48.39 35.62,44.96 C49.92,41.53 53.2,32.29 53.2,32.29 C53.2,32.29 52.46,34.53 57.67,39.74 C62.89,44.96 68.55,46 68.55,46 C68.55,46 69.74,55.39 69.74,55.39 C69.74,55.39 69.85,55.4 70.03,55.43 C70.6,60.66 72.48,64.89 77.33,63.62 C87.85,60.88 82.01,49.92 82.01,49.92 C82.01,49.92 89.78,42.15 85.44,32.78z "/><path id="_R_G_L_10_G_D_12_P_0" fill="#ffe1cc" fill-opacity="1" fill-rule="nonzero" d=" M77.33 60.08 C76.28,64.08 73.35,66.78 70.78,66.1 C68.22,65.43 67,61.63 68.05,57.63 C69.11,53.63 72.04,50.93 74.61,51.6 C77.17,52.28 78.39,56.07 77.33,60.08z "/><path id="_R_G_L_10_G_D_13_P_0" fill="#ffe1cc" fill-opacity="1" fill-rule="nonzero" d=" M7.82 60.08 C8.88,64.08 11.81,66.78 14.37,66.1 C16.93,65.43 18.16,61.63 17.1,57.63 C16.04,53.63 13.11,50.93 10.55,51.6 C7.99,52.28 6.77,56.07 7.82,60.08z "/><path id="_R_G_L_10_G_D_14_P_0" fill="#ffe1cc" fill-opacity="1" fill-rule="nonzero" d=" M60.1 121.3 C60.1,124.24 62.49,126.63 65.43,126.63 C68.37,126.63 70.76,124.24 70.76,121.3 C70.76,118.36 68.37,115.97 65.43,115.97 C62.49,115.97 60.1,118.36 60.1,121.3z "/><path id="_R_G_L_10_G_D_15_P_0" fill="#b3b3b3" fill-opacity="1" fill-rule="nonzero" d=" M39.22 109.46 C39.22,109.46 27.04,109.46 27.04,109.46 C27.04,109.46 27.04,89.51 27.04,89.51 C27.04,89.51 39.22,89.51 39.22,89.51 C39.22,89.51 39.22,109.46 39.22,109.46z "/><path id="_R_G_L_10_G_D_16_P_0" fill="#ffe1cc" fill-opacity="1" fill-rule="nonzero" d=" M30.52 105.03 C30.52,107.97 28.14,110.36 25.19,110.36 C22.25,110.36 19.86,107.97 19.86,105.03 C19.86,102.08 22.25,99.7 25.19,99.7 C28.14,99.7 30.52,102.08 30.52,105.03z "/></g><g id="_R_G_L_9_G_M"><g id="_R_G_L_9_G" transform=" translate(63, 69) translate(-12.5, -4.5)"><path id="_R_G_L_9_G_D_0_P_0" stroke="#ea6157" stroke-linecap="round" stroke-linejoin="round" fill="none" stroke-width="1.891" stroke-opacity="1" d=" M22.47 1.89 C22.47,1.89 19.02,6.81 12.18,6.81 C5.33,6.81 1.89,1.89 1.89,1.89 "/></g></g><g id="_R_G_L_8_G_M"><g id="_R_G_L_8_G" transform=" translate(63, 69) translate(-10.5, -5.5)"><path id="_R_G_L_8_G_D_0_P_0" fill="#ea6157" fill-opacity="1" fill-rule="nonzero" d=" M10.19 2.04 C15.37,2.04 19.82,0.25 19.82,0.25 C19.82,5.66 15.44,10.04 10.04,10.04 C4.63,10.04 0.25,5.66 0.25,0.25 C0.25,0.25 5.01,2.04 10.19,2.04z "/></g></g><g id="_R_G_L_7_G_M"><g id="_R_G_L_7_G" transform=" translate(63, 69) translate(-12.5, -4.5)"><path id="_R_G_L_7_G_D_0_P_0" stroke="#ea6157" stroke-linecap="round" stroke-linejoin="round" fill="none" stroke-width="1.891" stroke-opacity="1" d=" M22.47 1.89 C22.47,1.89 19.02,6.81 12.18,6.81 C5.33,6.81 1.89,1.89 1.89,1.89 "/></g></g><g id="_R_G_L_6_G_M"><g id="_R_G_L_6_G" transform=" translate(63, 69) translate(-10.5, -5.5)"><path id="_R_G_L_6_G_D_0_P_0" fill="#ea6157" fill-opacity="1" fill-rule="nonzero" d=" M10.19 2.04 C15.37,2.04 19.82,0.25 19.82,0.25 C19.82,5.66 15.44,10.04 10.04,10.04 C4.63,10.04 0.25,5.66 0.25,0.25 C0.25,0.25 5.01,2.04 10.19,2.04z "/></g></g><g id="_R_G_L_5_G_M"><g id="_R_G_L_5_G" transform=" translate(63, 69) translate(-12.5, -4.5)"><path id="_R_G_L_5_G_D_0_P_0" stroke="#ea6157" stroke-linecap="round" stroke-linejoin="round" fill="none" stroke-width="1.891" stroke-opacity="1" d=" M22.47 1.89 C22.47,1.89 19.02,6.81 12.18,6.81 C5.33,6.81 1.89,1.89 1.89,1.89 "/></g></g><g id="_R_G_L_4_G_M"><g id="_R_G_L_4_G" transform=" translate(62.5, 51) translate(-16.5, -5.5)"><path id="_R_G_L_4_G_D_0_P_0" fill="#46210c" fill-opacity="1" fill-rule="nonzero" d=" M6.19 6.15 C6.19,8.55 5.17,10.49 3.91,10.49 C2.64,10.49 1.62,8.55 1.62,6.15 C1.62,3.76 2.64,1.81 3.91,1.81 C5.17,1.81 6.19,3.76 6.19,6.15z "/><path id="_R_G_L_4_G_D_1_P_0" fill="#46210c" fill-opacity="1" fill-rule="nonzero" d=" M26.24 6.15 C26.24,8.55 27.27,10.49 28.53,10.49 C29.79,10.49 30.82,8.55 30.82,6.15 C30.82,3.76 29.79,1.81 28.53,1.81 C27.27,1.81 26.24,3.76 26.24,6.15z "/><path id="_R_G_L_4_G_D_2_P_0" stroke="#46210c" stroke-linecap="round" stroke-linejoin="round" fill="none" stroke-width="1.891" stroke-opacity="1" d=" M3.11 3.12 C3.11,3.12 0.95,0.94 0.95,0.94 "/><path id="_R_G_L_4_G_D_3_P_0" stroke="#46210c" stroke-linecap="round" stroke-linejoin="round" fill="none" stroke-width="1.891" stroke-opacity="1" d=" M29.32 3.12 C29.32,3.12 31.49,0.94 31.49,0.94 "/></g></g><g id="_R_G_L_3_G_M"><g id="_R_G_L_3_G" transform=" translate(62.5, 53.5) translate(-20, -6)"><path id="_R_G_L_3_G_D_0_P_0" stroke="#4f2510" stroke-linecap="round" stroke-linejoin="round" fill="none" stroke-width="1.644" stroke-opacity="1" d=" M4.11 4.11 C4.11,4.11 7.13,7.83 10.32,4.21 "/><path id="_R_G_L_3_G_D_1_P_0" stroke="#4f2510" stroke-linecap="round" stroke-linejoin="round" fill="none" stroke-width="1.644" stroke-opacity="1" d=" M28.73 4.11 C28.73,4.11 31.75,7.83 34.94,4.21 "/><path id="_R_G_L_3_G_D_2_P_0" stroke="#46210c" stroke-linecap="round" stroke-linejoin="round" fill="none" stroke-width="1.891" stroke-opacity="1" d=" M4.11 4.11 C4.11,4.11 7.13,7.83 10.32,4.21 "/><path id="_R_G_L_3_G_D_3_P_0" stroke="#46210c" stroke-linecap="round" stroke-linejoin="round" fill="none" stroke-width="1.891" stroke-opacity="1" d=" M28.73 4.11 C28.73,4.11 31.75,7.83 34.94,4.21 "/></g></g><g id="_R_G_L_2_G_M"><g id="_R_G_L_2_G" transform=" translate(62.5, 51) translate(-16.5, -5.5)"><path id="_R_G_L_2_G_D_0_P_0" fill="#46210c" fill-opacity="1" fill-rule="nonzero" d=" M6.19 6.15 C6.19,8.55 5.17,10.49 3.91,10.49 C2.64,10.49 1.62,8.55 1.62,6.15 C1.62,3.76 2.64,1.81 3.91,1.81 C5.17,1.81 6.19,3.76 6.19,6.15z "/><path id="_R_G_L_2_G_D_1_P_0" fill="#46210c" fill-opacity="1" fill-rule="nonzero" d=" M26.24 6.15 C26.24,8.55 27.27,10.49 28.53,10.49 C29.79,10.49 30.82,8.55 30.82,6.15 C30.82,3.76 29.79,1.81 28.53,1.81 C27.27,1.81 26.24,3.76 26.24,6.15z "/><path id="_R_G_L_2_G_D_2_P_0" stroke="#46210c" stroke-linecap="round" stroke-linejoin="round" fill="none" stroke-width="1.891" stroke-opacity="1" d=" M3.11 3.12 C3.11,3.12 0.95,0.94 0.95,0.94 "/><path id="_R_G_L_2_G_D_3_P_0" stroke="#46210c" stroke-linecap="round" stroke-linejoin="round" fill="none" stroke-width="1.891" stroke-opacity="1" d=" M29.32 3.12 C29.32,3.12 31.49,0.94 31.49,0.94 "/></g></g><g id="_R_G_L_1_G_M"><g id="_R_G_L_1_G" transform=" translate(97, 7) translate(-8, -6.5)"><path id="_R_G_L_1_G_D_0_P_0" stroke="#f7931e" stroke-linecap="round" stroke-linejoin="round" fill="none" stroke-width="2.315" stroke-opacity="1" d=" M10.42 11.56 C10.42,11.56 14.42,9.22 14.42,9.22 "/><path id="_R_G_L_1_G_D_1_P_0" stroke="#f7931e" stroke-linecap="round" stroke-linejoin="round" fill="none" stroke-width="2.315" stroke-opacity="1" d=" M1.16 5.91 C1.16,5.91 2,1.16 2,1.16 "/><path id="_R_G_L_1_G_D_2_P_0" stroke="#f7931e" stroke-linecap="round" stroke-linejoin="round" fill="none" stroke-width="2.315" stroke-opacity="1" d=" M5.86 8.15 C5.86,8.15 8.92,4.25 8.92,4.25 "/></g></g><g id="_R_G_L_0_G_M"><g id="_R_G_L_0_G" transform=" translate(97, 7) translate(-8, -6.5)"><path id="_R_G_L_0_G_D_0_P_0" stroke="#f7931e" stroke-linecap="round" stroke-linejoin="round" fill="none" stroke-width="2.315" stroke-opacity="1" d=" M10.42 11.56 C10.42,11.56 14.42,9.22 14.42,9.22 "/><path id="_R_G_L_0_G_D_1_P_0" stroke="#f7931e" stroke-linecap="round" stroke-linejoin="round" fill="none" stroke-width="2.315" stroke-opacity="1" d=" M1.16 5.91 C1.16,5.91 2,1.16 2,1.16 "/><path id="_R_G_L_0_G_D_2_P_0" stroke="#f7931e" stroke-linecap="round" stroke-linejoin="round" fill="none" stroke-width="2.315" stroke-opacity="1" d=" M5.86 8.15 C5.86,8.15 8.92,4.25 8.92,4.25 "/></g></g></g><g id="time_group"/></svg>