<svg xmlns="http://www.w3.org/2000/svg" xmlns:xlink="http://www.w3.org/1999/xlink" preserveAspectRatio="xMidYMid meet" width="130" height="158" viewBox="0 0 130 158" style="width:100%;height:100%"><defs><animate repeatCount="indefinite" dur="3.003003s" begin="0s" xlink:href="#_R_G_L_9_G_M" fill="freeze" attributeName="opacity" from="1" to="0" keyTimes="0;0.0888889;0.0888889;1" values="1;1;0;0" keySplines="0 0 0 0;0 0 0 0;0 0 0 0" calcMode="spline"/><animate repeatCount="indefinite" dur="3.003003s" begin="0s" xlink:href="#_R_G_L_8_G_M" fill="freeze" attributeName="opacity" from="0" to="0" keyTimes="0;0.0888889;0.08889;0.1777778;0.1777778;1" values="0;0;1;1;0;0" keySplines="0 0 0 0;0 0 0 0;0 0 0 0;0 0 0 0;0 0 0 0" calcMode="spline"/><animate repeatCount="indefinite" dur="3.003003s" begin="0s" xlink:href="#_R_G_L_7_G_M" fill="freeze" attributeName="opacity" from="0" to="0" keyTimes="0;0.1777778;0.1777789;0.2777778;0.2777778;1" values="0;0;1;1;0;0" keySplines="0 0 0 0;0 0 0 0;0 0 0 0;0 0 0 0;0 0 0 0" calcMode="spline"/><animate repeatCount="indefinite" dur="3.003003s" begin="0s" xlink:href="#_R_G_L_6_G_M" fill="freeze" attributeName="opacity" from="0" to="0" keyTimes="0;0.2777778;0.2777789;0.4;0.4;1" values="0;0;1;1;0;0" keySplines="0 0 0 0;0 0 0 0;0 0 0 0;0 0 0 0;0 0 0 0" calcMode="spline"/><animate repeatCount="indefinite" dur="3.003003s" begin="0s" xlink:href="#_R_G_L_5_G_M" fill="freeze" attributeName="opacity" from="0" to="1" keyTimes="0;0.4;0.4000011;1" values="0;0;1;1" keySplines="0 0 0 0;0 0 0 0;0 0 0 0" calcMode="spline"/><animate repeatCount="indefinite" dur="3.003003s" begin="0s" xlink:href="#_R_G_L_4_G_M" fill="freeze" attributeName="opacity" from="0" to="0" keyTimes="0;0.0555556;0.0555567;0.1888889;0.1888889;1" values="0;0;1;1;0;0" keySplines="0 0 0 0;0 0 0 0;0 0 0 0;0 0 0 0;0 0 0 0" calcMode="spline"/><animate repeatCount="indefinite" dur="3.003003s" begin="0s" xlink:href="#_R_G_L_3_G_M" fill="freeze" attributeName="opacity" from="0" to="0" keyTimes="0;0.2666667;0.2666678;0.4;0.4;1" values="0;0;1;1;0;0" keySplines="0 0 0 0;0 0 0 0;0 0 0 0;0 0 0 0;0 0 0 0" calcMode="spline"/><animate repeatCount="indefinite" dur="3.003003s" begin="0s" xlink:href="#_R_G_L_2_G_M" fill="freeze" attributeName="opacity" from="1" to="0" keyTimes="0;0.7111111;0.7111111;1" values="1;1;0;0" keySplines="0 0 0 0;0 0 0 0;0 0 0 0" calcMode="spline"/><animate repeatCount="indefinite" dur="3.003003s" begin="0s" xlink:href="#_R_G_L_1_G_M" fill="freeze" attributeName="opacity" from="0" to="0" keyTimes="0;0.7111111;0.7111122;0.7666667;0.7666667;1" values="0;0;1;1;0;0" keySplines="0 0 0 0;0 0 0 0;0 0 0 0;0 0 0 0;0 0 0 0" calcMode="spline"/><animate repeatCount="indefinite" dur="3.003003s" begin="0s" xlink:href="#_R_G_L_0_G_M" fill="freeze" attributeName="opacity" from="0" to="1" keyTimes="0;0.7666667;0.7666678;1" values="0;0;1;1" keySplines="0 0 0 0;0 0 0 0;0 0 0 0" calcMode="spline"/><animate attributeType="XML" attributeName="opacity" dur="3s" from="0" to="1" xlink:href="#time_group"/></defs><g id="_R_G"><g id="_R_G_L_10_G" transform=" translate(65, 79) translate(-40, -80.5)"><path id="_R_G_L_10_G_D_0_P_0" fill="#ffe1cc" fill-opacity="1" fill-rule="nonzero" d=" M26.46 92.84 C26.46,92.84 22.2,87.65 22.2,87.65 C22.2,87.65 13.23,116.32 13.23,116.32 C13.23,116.32 19.32,117.74 19.32,117.74 C19.32,117.74 26.46,92.84 26.46,92.84z "/><path id="_R_G_L_10_G_D_1_P_0" fill="#004f9e" fill-opacity="1" fill-rule="nonzero" d=" M35.65 80.9 C35.65,80.9 32.33,79.9 32.33,79.9 C32.33,79.9 18.32,89.41 18.32,89.41 C18.32,89.41 24.2,98.59 24.2,98.59 C24.2,98.59 35.65,80.9 35.65,80.9z "/><path id="_R_G_L_10_G_D_2_P_0" fill="#004f9e" fill-opacity="1" fill-rule="nonzero" d=" M57.27 101.75 C56.42,86.92 43.75,79.44 43.75,79.44 C43.75,79.44 39.43,79.26 39.43,79.26 C39.43,79.26 35.11,79.44 35.11,79.44 C35.11,79.44 22.66,86.93 21.58,101.75 C20.62,114.94 23.23,123.21 23.23,123.21 C23.23,123.21 55.77,123.21 55.77,123.21 C55.77,123.21 58.11,116.21 57.27,101.75z "/><path id="_R_G_L_10_G_D_3_P_0" fill="#004f9e" fill-opacity="1" fill-rule="nonzero" d=" M28.02 152.75 C28.02,152.75 21.19,148.92 17.19,152.92 C13.19,156.92 16.6,160.06 16.6,160.06 C16.6,160.06 36.47,160.06 36.47,160.06 C36.47,160.06 36.92,152.75 36.92,152.75 C36.92,152.75 28.02,152.75 28.02,152.75z "/><path id="_R_G_L_10_G_D_4_P_0" fill="#004f9e" fill-opacity="1" fill-rule="nonzero" d=" M50.86 152.75 C50.86,152.75 57.69,148.92 61.69,152.92 C65.68,156.92 62.28,160.06 62.28,160.06 C62.28,160.06 42.41,160.06 42.41,160.06 C42.41,160.06 41.95,152.75 41.95,152.75 C41.95,152.75 50.86,152.75 50.86,152.75z "/><path id="_R_G_L_10_G_D_5_P_0" fill="#333333" fill-opacity="1" fill-rule="nonzero" d=" M23.1 123.21 C23.1,123.21 28.02,152.75 28.02,152.75 C28.02,152.75 36.92,155.09 36.92,155.09 C36.92,155.09 38.3,135.62 38.3,135.62 C38.3,135.62 39.44,129.94 39.44,129.94 C39.44,129.94 40.58,135.62 40.58,135.62 C40.58,135.62 41.95,155.09 41.95,155.09 C41.95,155.09 50.86,152.75 50.86,152.75 C50.86,152.75 55.78,123.21 55.78,123.21 C55.78,123.21 23.1,123.21 23.1,123.21z "/><path id="_R_G_L_10_G_D_6_P_0" fill="#ffe1cc" fill-opacity="1" fill-rule="nonzero" d=" M69.59 51.56 C69.59,68.21 56.09,81.71 39.44,81.71 C22.79,81.71 9.29,68.21 9.29,51.56 C9.29,34.91 22.79,21.41 39.44,21.41 C56.09,21.41 69.59,34.91 69.59,51.56z "/><path id="_R_G_L_10_G_D_7_P_0" stroke="#333333" stroke-linecap="round" stroke-linejoin="round" fill="none" stroke-width="1.891" stroke-opacity="1" d=" M35.87 52.41 C35.87,52.41 39.08,48.5 42.98,52.41 "/><path id="_R_G_L_10_G_D_8_P_0" stroke="#333333" stroke-linecap="round" stroke-linejoin="round" fill="none" stroke-width="1.891" stroke-opacity="1" d=" M16.5 52.26 C16.5,52.26 10.64,52.26 10.64,52.26 "/><path id="_R_G_L_10_G_D_9_P_0" stroke="#333333" stroke-linecap="round" stroke-linejoin="round" fill="none" stroke-width="1.891" stroke-opacity="1" d=" M68.24 52.26 C68.24,52.26 62.38,52.26 62.38,52.26 "/><path id="_R_G_L_10_G_D_10_P_0" fill="#ffffff" fill-opacity="1" fill-rule="nonzero" d=" M36.05 54.33 C36.05,55.76 34.89,56.92 33.46,56.92 C33.46,56.92 19.09,56.92 19.09,56.92 C17.66,56.92 16.5,55.76 16.5,54.33 C16.5,54.33 16.5,49.21 16.5,49.21 C16.5,47.78 17.66,46.62 19.09,46.62 C19.09,46.62 33.46,46.62 33.46,46.62 C34.89,46.62 36.05,47.78 36.05,49.21 C36.05,49.21 36.05,54.33 36.05,54.33z "/><path id="_R_G_L_10_G_D_11_P_0" stroke="#333333" stroke-linecap="round" stroke-linejoin="round" fill="none" stroke-width="1.891" stroke-opacity="1" d=" M36.05 54.33 C36.05,55.76 34.89,56.92 33.46,56.92 C33.46,56.92 19.09,56.92 19.09,56.92 C17.66,56.92 16.5,55.76 16.5,54.33 C16.5,54.33 16.5,49.21 16.5,49.21 C16.5,47.78 17.66,46.62 19.09,46.62 C19.09,46.62 33.46,46.62 33.46,46.62 C34.89,46.62 36.05,47.78 36.05,49.21 C36.05,49.21 36.05,54.33 36.05,54.33z "/><path id="_R_G_L_10_G_D_12_P_0" fill="#ffffff" fill-opacity="1" fill-rule="nonzero" d=" M42.8 54.33 C42.8,55.76 43.96,56.92 45.39,56.92 C45.39,56.92 59.76,56.92 59.76,56.92 C61.19,56.92 62.35,55.76 62.35,54.33 C62.35,54.33 62.35,49.21 62.35,49.21 C62.35,47.78 61.19,46.62 59.76,46.62 C59.76,46.62 45.39,46.62 45.39,46.62 C43.96,46.62 42.8,47.78 42.8,49.21 C42.8,49.21 42.8,54.33 42.8,54.33z "/><path id="_R_G_L_10_G_D_13_P_0" stroke="#333333" stroke-linecap="round" stroke-linejoin="round" fill="none" stroke-width="1.891" stroke-opacity="1" d=" M42.8 54.33 C42.8,55.76 43.96,56.92 45.39,56.92 C45.39,56.92 59.76,56.92 59.76,56.92 C61.19,56.92 62.35,55.76 62.35,54.33 C62.35,54.33 62.35,49.21 62.35,49.21 C62.35,47.78 61.19,46.62 59.76,46.62 C59.76,46.62 45.39,46.62 45.39,46.62 C43.96,46.62 42.8,47.78 42.8,49.21 C42.8,49.21 42.8,54.33 42.8,54.33z "/><path id="_R_G_L_10_G_D_14_P_0" fill="#241400" fill-opacity="1" fill-rule="nonzero" d=" M41.5 58.41 C41.5,58.79 40.57,59.1 39.44,59.1 C38.31,59.1 37.38,58.79 37.38,58.41 C37.38,58.03 38.31,57.73 39.44,57.73 C40.57,57.73 41.5,58.03 41.5,58.41z "/><path id="_R_G_L_10_G_D_15_P_0" fill="#333333" fill-opacity="1" fill-rule="nonzero" d=" M18.7 40.68 C18.7,40.68 35.75,42.81 35.75,42.81 C35.75,42.81 34.26,45.58 34.26,45.58 C34.26,45.58 18.7,40.68 18.7,40.68z "/><path id="_R_G_L_10_G_D_16_P_0" fill="#333333" fill-opacity="1" fill-rule="nonzero" d=" M59.57 39.96 C59.57,39.96 42.6,42.69 42.6,42.69 C42.6,42.69 44.19,45.4 44.19,45.4 C44.19,45.4 59.57,39.96 59.57,39.96z "/><path id="_R_G_L_10_G_D_17_P_0" fill="#ffe1cc" fill-opacity="1" fill-rule="nonzero" d=" M34.67 81.33 C34.67,81.33 39.44,89.41 39.44,89.41 C39.44,89.41 45.1,81.18 45.1,81.18 C45.1,81.18 40.47,78.75 40.47,78.75 C40.47,78.75 34.67,81.33 34.67,81.33z "/><path id="_R_G_L_10_G_D_18_P_0" fill="#333333" fill-opacity="1" fill-rule="nonzero" d=" M78.93 33.45 C78.93,32.5 77.35,29.07 75.62,27.85 C77.11,24.03 77.48,18.63 76.92,18.07 C75.85,17 65.77,14.89 65.77,14.89 C65.77,14.89 65.98,8.93 64,6.95 C62.35,5.29 50.07,8.72 50.07,8.72 C50.07,8.72 47.18,3.6 45.5,1.93 C43.83,0.25 30.45,6.76 30.45,6.76 C30.45,6.76 22.43,2.69 21.29,3.83 C20.15,4.97 18.09,11.75 18.09,11.75 C18.09,11.75 9.94,12.28 9.03,13.2 C8.12,14.11 8.27,20.2 8.27,20.2 C8.27,20.2 0.58,22.77 0.49,24.3 C0.25,28.15 4.77,32.61 4.77,32.61 C3.54,33.59 1.01,36.25 1.19,37.03 C1.64,39.04 4.88,41.26 7.2,43.58 C7.2,47.52 8.04,53.78 8.04,53.78 C8.57,55.12 12.34,52.2 12.34,52.2 C12.34,41.29 17.79,32.76 17.79,32.76 C17.79,32.76 19.18,37.6 21.47,36.69 C23.75,35.77 29.36,25.91 29.36,25.91 C29.36,25.91 38.66,34.12 40.48,34.12 C42.31,34.12 45.18,26.81 45.86,26.12 C46.55,25.44 53.34,36.56 54.86,36.56 C56.39,36.56 59.21,30.02 59.21,30.02 C59.21,30.02 61.64,42.36 67.51,40.56 C67.51,40.56 68.65,52.26 68.65,52.26 C68.65,52.26 71.31,56.07 71.63,54.95 C74.38,53.73 74.13,44.39 74.13,42.32 C78.09,36.12 78.93,34.35 78.93,33.45z "/><path id="_R_G_L_10_G_D_19_P_0" fill="#ffe1cc" fill-opacity="1" fill-rule="nonzero" d=" M4.68 58.46 C5.74,62.46 8.67,65.16 11.23,64.48 C13.8,63.81 15.02,60.01 13.96,56.01 C12.91,52.01 9.97,49.31 7.41,49.98 C4.85,50.66 3.63,54.45 4.68,58.46z "/><path id="_R_G_L_10_G_D_20_P_0" fill="#ffe1cc" fill-opacity="1" fill-rule="nonzero" d=" M74.19 58.46 C73.14,62.46 70.21,65.16 67.64,64.48 C65.08,63.81 63.86,60.01 64.92,56.01 C65.97,52.01 68.91,49.31 71.47,49.98 C74.03,50.66 75.25,54.45 74.19,58.46z "/><path id="_R_G_L_10_G_D_21_P_0" fill="#f47a00" fill-opacity="1" fill-rule="nonzero" d=" M35.65 110.79 C35.65,112 36.63,112.98 37.83,112.98 C37.83,112.98 61.96,112.98 61.96,112.98 C63.17,112.98 64.15,112 64.15,110.79 C64.15,110.79 64.15,79.15 64.15,79.15 C64.15,77.95 63.17,76.97 61.96,76.97 C61.96,76.97 37.83,76.97 37.83,76.97 C36.63,76.97 35.65,77.95 35.65,79.15 C35.65,79.15 35.65,110.79 35.65,110.79z "/><path id="_R_G_L_10_G_D_22_P_0" fill="#ffe1cc" fill-opacity="1" fill-rule="nonzero" d=" M70.56 101.33 C70.56,104.28 68.17,106.66 65.23,106.66 C62.28,106.66 59.9,104.28 59.9,101.33 C59.9,98.39 62.28,96 65.23,96 C68.17,96 70.56,98.39 70.56,101.33z "/><path id="_R_G_L_10_G_D_23_P_0" stroke="#333333" stroke-linecap="round" stroke-linejoin="round" fill="none" stroke-width="5.359" stroke-opacity="1" d=" M29.31 79.96 C29.31,79.96 25.78,84.76 30.01,92.64 "/><path id="_R_G_L_10_G_D_24_P_0" fill="#b3b3b3" fill-opacity="1" fill-rule="nonzero" d=" M34.16 99.65 C34.16,101.92 32.72,103.76 30.96,103.76 C29.19,103.76 27.76,101.92 27.76,99.65 C27.76,97.38 29.19,95.54 30.96,95.54 C32.72,95.54 34.16,97.38 34.16,99.65z "/><path id="_R_G_L_10_G_D_25_P_0" stroke="#b3b3b3" stroke-linecap="round" stroke-linejoin="round" fill="none" stroke-width="5.359" stroke-opacity="1" d=" M29.18 90.91 C29.18,90.91 30.96,99.65 30.96,99.65 "/><path id="_R_G_L_10_G_D_26_P_0" fill="#ffe1cc" fill-opacity="1" fill-rule="nonzero" d=" M20.58 119.68 C20.58,122.62 18.19,125.01 15.25,125.01 C12.3,125.01 9.92,122.62 9.92,119.68 C9.92,116.74 12.3,114.35 15.25,114.35 C18.19,114.35 20.58,116.74 20.58,119.68z "/></g><g id="_R_G_L_9_G_M"><g id="_R_G_L_9_G" transform=" translate(65, 66.5) translate(-12.5, -4.5)"><path id="_R_G_L_9_G_D_0_P_0" stroke="#ea6157" stroke-linecap="round" stroke-linejoin="round" fill="none" stroke-width="1.891" stroke-opacity="1" d=" M22.47 1.89 C22.47,1.89 19.02,6.81 12.18,6.81 C5.33,6.81 1.89,1.89 1.89,1.89 "/></g></g><g id="_R_G_L_8_G_M"><g id="_R_G_L_8_G" transform=" translate(65, 67.5) translate(-12.5, -5.5)"><path id="_R_G_L_8_G_D_0_P_0" stroke="#ea6157" stroke-linecap="round" stroke-linejoin="round" fill="none" stroke-width="1.891" stroke-opacity="1" d=" M22.46 1.89 C22.46,1.89 19.02,6.81 12.18,6.81 C5.33,6.81 1.89,1.89 1.89,1.89 "/><path id="_R_G_L_8_G_D_1_P_0" fill="#ea6157" fill-opacity="1" fill-rule="nonzero" d=" M12.33 2.68 C17.51,2.68 21.96,0.89 21.96,0.89 C21.96,6.29 17.58,10.68 12.18,10.68 C6.78,10.68 2.39,6.29 2.39,0.89 C2.39,0.89 7.15,2.68 12.33,2.68z "/></g></g><g id="_R_G_L_7_G_M"><g id="_R_G_L_7_G" transform=" translate(65, 66.5) translate(-12.5, -4.5)"><path id="_R_G_L_7_G_D_0_P_0" stroke="#ea6157" stroke-linecap="round" stroke-linejoin="round" fill="none" stroke-width="1.891" stroke-opacity="1" d=" M22.47 1.89 C22.47,1.89 19.02,6.81 12.18,6.81 C5.33,6.81 1.89,1.89 1.89,1.89 "/></g></g><g id="_R_G_L_6_G_M"><g id="_R_G_L_6_G" transform=" translate(65, 67.5) translate(-12.5, -5.5)"><path id="_R_G_L_6_G_D_0_P_0" stroke="#ea6157" stroke-linecap="round" stroke-linejoin="round" fill="none" stroke-width="1.891" stroke-opacity="1" d=" M22.46 1.89 C22.46,1.89 19.02,6.81 12.18,6.81 C5.33,6.81 1.89,1.89 1.89,1.89 "/><path id="_R_G_L_6_G_D_1_P_0" fill="#ea6157" fill-opacity="1" fill-rule="nonzero" d=" M12.33 2.68 C17.51,2.68 21.96,0.89 21.96,0.89 C21.96,6.29 17.58,10.68 12.18,10.68 C6.78,10.68 2.39,6.29 2.39,0.89 C2.39,0.89 7.15,2.68 12.33,2.68z "/></g></g><g id="_R_G_L_5_G_M"><g id="_R_G_L_5_G" transform=" translate(65, 66.5) translate(-12.5, -4.5)"><path id="_R_G_L_5_G_D_0_P_0" stroke="#ea6157" stroke-linecap="round" stroke-linejoin="round" fill="none" stroke-width="1.891" stroke-opacity="1" d=" M22.47 1.89 C22.47,1.89 19.02,6.81 12.18,6.81 C5.33,6.81 1.89,1.89 1.89,1.89 "/></g></g><g id="_R_G_L_4_G_M"><g id="_R_G_L_4_G" transform=" translate(25, 7.5) translate(-8, -6.5)"><path id="_R_G_L_4_G_D_0_P_0" stroke="#f7931e" stroke-linecap="round" stroke-linejoin="round" fill="none" stroke-width="2.315" stroke-opacity="1" d=" M5.16 11.56 C5.16,11.56 1.16,9.22 1.16,9.22 "/><path id="_R_G_L_4_G_D_1_P_0" stroke="#f7931e" stroke-linecap="round" stroke-linejoin="round" fill="none" stroke-width="2.315" stroke-opacity="1" d=" M14.42 5.91 C14.42,5.91 13.58,1.16 13.58,1.16 "/><path id="_R_G_L_4_G_D_2_P_0" stroke="#f7931e" stroke-linecap="round" stroke-linejoin="round" fill="none" stroke-width="2.315" stroke-opacity="1" d=" M9.72 8.15 C9.72,8.15 6.66,4.25 6.66,4.25 "/></g></g><g id="_R_G_L_3_G_M"><g id="_R_G_L_3_G" transform=" translate(25, 7.5) translate(-8, -6.5)"><path id="_R_G_L_3_G_D_0_P_0" stroke="#f7931e" stroke-linecap="round" stroke-linejoin="round" fill="none" stroke-width="2.315" stroke-opacity="1" d=" M5.16 11.56 C5.16,11.56 1.16,9.22 1.16,9.22 "/><path id="_R_G_L_3_G_D_1_P_0" stroke="#f7931e" stroke-linecap="round" stroke-linejoin="round" fill="none" stroke-width="2.315" stroke-opacity="1" d=" M14.42 5.91 C14.42,5.91 13.58,1.16 13.58,1.16 "/><path id="_R_G_L_3_G_D_2_P_0" stroke="#f7931e" stroke-linecap="round" stroke-linejoin="round" fill="none" stroke-width="2.315" stroke-opacity="1" d=" M9.72 8.15 C9.72,8.15 6.66,4.25 6.66,4.25 "/></g></g><g id="_R_G_L_2_G_M"><g id="_R_G_L_2_G" transform=" translate(65, 50.5) translate(-15, -5)"><path id="_R_G_L_2_G_D_0_P_0" fill="#333333" fill-opacity="1" fill-rule="nonzero" d=" M4.82 4.59 C4.82,6.99 3.8,8.93 2.53,8.93 C1.27,8.93 0.25,6.99 0.25,4.59 C0.25,2.19 1.27,0.25 2.53,0.25 C3.8,0.25 4.82,2.19 4.82,4.59z "/><path id="_R_G_L_2_G_D_1_P_0" fill="#333333" fill-opacity="1" fill-rule="nonzero" d=" M24.87 4.59 C24.87,6.99 25.9,8.93 27.16,8.93 C28.42,8.93 29.44,6.99 29.44,4.59 C29.44,2.19 28.42,0.25 27.16,0.25 C25.9,0.25 24.87,2.19 24.87,4.59z "/></g></g><g id="_R_G_L_1_G_M"><g id="_R_G_L_1_G" transform=" translate(65, 51) translate(-20, -6)"><path id="_R_G_L_1_G_D_0_P_0" stroke="#4f2510" stroke-linecap="round" stroke-linejoin="round" fill="none" stroke-width="1.644" stroke-opacity="1" d=" M4.11 4.11 C4.11,4.11 7.13,7.83 10.32,4.21 "/><path id="_R_G_L_1_G_D_1_P_0" stroke="#4f2510" stroke-linecap="round" stroke-linejoin="round" fill="none" stroke-width="1.644" stroke-opacity="1" d=" M28.73 4.11 C28.73,4.11 31.75,7.83 34.94,4.21 "/><path id="_R_G_L_1_G_D_2_P_0" stroke="#333333" stroke-linecap="round" stroke-linejoin="round" fill="none" stroke-width="1.891" stroke-opacity="1" d=" M4.11 4.11 C4.11,4.11 7.13,7.83 10.32,4.21 "/><path id="_R_G_L_1_G_D_3_P_0" stroke="#333333" stroke-linecap="round" stroke-linejoin="round" fill="none" stroke-width="1.891" stroke-opacity="1" d=" M28.73 4.11 C28.73,4.11 31.75,7.83 34.94,4.21 "/></g></g><g id="_R_G_L_0_G_M"><g id="_R_G_L_0_G" transform=" translate(65, 50.5) translate(-15, -5)"><path id="_R_G_L_0_G_D_0_P_0" fill="#333333" fill-opacity="1" fill-rule="nonzero" d=" M4.82 4.59 C4.82,6.99 3.8,8.93 2.53,8.93 C1.27,8.93 0.25,6.99 0.25,4.59 C0.25,2.19 1.27,0.25 2.53,0.25 C3.8,0.25 4.82,2.19 4.82,4.59z "/><path id="_R_G_L_0_G_D_1_P_0" fill="#333333" fill-opacity="1" fill-rule="nonzero" d=" M24.87 4.59 C24.87,6.99 25.9,8.93 27.16,8.93 C28.42,8.93 29.44,6.99 29.44,4.59 C29.44,2.19 28.42,0.25 27.16,0.25 C25.9,0.25 24.87,2.19 24.87,4.59z "/></g></g></g><g id="time_group"/></svg>