<svg xmlns="http://www.w3.org/2000/svg" xmlns:xlink="http://www.w3.org/1999/xlink" preserveAspectRatio="xMidYMid meet" width="130" height="158" viewBox="0 0 130 158" style="width:100%;height:100%"><defs><animate repeatCount="indefinite" dur="3.003003s" begin="0s" xlink:href="#_R_G_L_12_G_M" fill="freeze" attributeName="opacity" from="1" to="0" keyTimes="0;0.0666667;0.0666667;1" values="1;1;0;0" keySplines="0 0 0 0;0 0 0 0;0 0 0 0" calcMode="spline"/><animate repeatCount="indefinite" dur="3.003003s" begin="0s" xlink:href="#_R_G_L_11_G_M" fill="freeze" attributeName="opacity" from="0" to="0" keyTimes="0;0.0666667;0.0666678;0.1555556;0.1555556;1" values="0;0;1;1;0;0" keySplines="0 0 0 0;0 0 0 0;0 0 0 0;0 0 0 0;0 0 0 0" calcMode="spline"/><animate repeatCount="indefinite" dur="3.003003s" begin="0s" xlink:href="#_R_G_L_10_G_M" fill="freeze" attributeName="opacity" from="0" to="0" keyTimes="0;0.0666667;0.0666678;0.1555556;0.1555556;1" values="0;0;1;1;0;0" keySplines="0 0 0 0;0 0 0 0;0 0 0 0;0 0 0 0;0 0 0 0" calcMode="spline"/><animate repeatCount="indefinite" dur="3.003003s" begin="0s" xlink:href="#_R_G_L_9_G_M" fill="freeze" attributeName="opacity" from="0" to="0" keyTimes="0;0.2222222;0.2222233;0.3111111;0.3111111;1" values="0;0;1;1;0;0" keySplines="0 0 0 0;0 0 0 0;0 0 0 0;0 0 0 0;0 0 0 0" calcMode="spline"/><animate repeatCount="indefinite" dur="3.003003s" begin="0s" xlink:href="#_R_G_L_8_G_M" fill="freeze" attributeName="opacity" from="0" to="0" keyTimes="0;0.1555556;0.1555567;0.2666667;0.2666667;1" values="0;0;1;1;0;0" keySplines="0 0 0 0;0 0 0 0;0 0 0 0;0 0 0 0;0 0 0 0" calcMode="spline"/><animate repeatCount="indefinite" dur="3.003003s" begin="0s" xlink:href="#_R_G_L_7_G_M" fill="freeze" attributeName="opacity" from="0" to="0" keyTimes="0;0.2666667;0.2666678;0.3777778;0.3777778;1" values="0;0;1;1;0;0" keySplines="0 0 0 0;0 0 0 0;0 0 0 0;0 0 0 0;0 0 0 0" calcMode="spline"/><animate repeatCount="indefinite" dur="3.003003s" begin="0s" xlink:href="#_R_G_L_6_G_M" fill="freeze" attributeName="opacity" from="0" to="1" keyTimes="0;0.3777778;0.3777789;1" values="0;0;1;1" keySplines="0 0 0 0;0 0 0 0;0 0 0 0" calcMode="spline"/><animate repeatCount="indefinite" dur="3.003003s" begin="0s" xlink:href="#_R_G_L_5_G_M" fill="freeze" attributeName="opacity" from="0" to="0" keyTimes="0;0.2666667;0.2666678;0.3666667;0.3666667;1" values="0;0;1;1;0;0" keySplines="0 0 0 0;0 0 0 0;0 0 0 0;0 0 0 0;0 0 0 0" calcMode="spline"/><animate repeatCount="indefinite" dur="3.003003s" begin="0s" xlink:href="#_R_G_L_4_G_M" fill="freeze" attributeName="opacity" from="0" to="0" keyTimes="0;0.7222222;0.7222233;0.7444444;0.7444445;1" values="0;0;1;1;0;0" keySplines="0 0 0 0;0 0 0 0;0 0 0 0;0 0 0 0;0 0 0 0" calcMode="spline"/><animate repeatCount="indefinite" dur="3.003003s" begin="0s" xlink:href="#_R_G_L_3_G_M" fill="freeze" attributeName="opacity" from="1" to="0" keyTimes="0;0.7222222;0.7222222;1" values="1;1;0;0" keySplines="0 0 0 0;0 0 0 0;0 0 0 0" calcMode="spline"/><animate repeatCount="indefinite" dur="3.003003s" begin="0s" xlink:href="#_R_G_L_2_G_M" fill="freeze" attributeName="opacity" from="0" to="0" keyTimes="0;0.7444444;0.7444456;0.8222222;0.8222222;1" values="0;0;1;1;0;0" keySplines="0 0 0 0;0 0 0 0;0 0 0 0;0 0 0 0;0 0 0 0" calcMode="spline"/><animate repeatCount="indefinite" dur="3.003003s" begin="0s" xlink:href="#_R_G_L_1_G_M" fill="freeze" attributeName="opacity" from="0" to="0" keyTimes="0;0.8222222;0.8222233;0.8444444;0.8444445;1" values="0;0;1;1;0;0" keySplines="0 0 0 0;0 0 0 0;0 0 0 0;0 0 0 0;0 0 0 0" calcMode="spline"/><animate repeatCount="indefinite" dur="3.003003s" begin="0s" xlink:href="#_R_G_L_0_G_M" fill="freeze" attributeName="opacity" from="0" to="1" keyTimes="0;0.8444444;0.8444456;1" values="0;0;1;1" keySplines="0 0 0 0;0 0 0 0;0 0 0 0" calcMode="spline"/><animate attributeType="XML" attributeName="opacity" dur="3s" from="0" to="1" xlink:href="#time_group"/></defs><g id="_R_G"><g id="_R_G_L_13_G" transform=" translate(65, 79) translate(-36.5, -79)"><path id="_R_G_L_13_G_D_0_P_0" fill="#ffe1cc" fill-opacity="1" fill-rule="nonzero" d=" M21.53 118.38 C21.53,118.38 26.46,147.92 26.46,147.92 C26.46,147.92 33.55,150.25 33.55,150.25 C33.55,150.25 34.92,130.79 34.92,130.79 C34.92,130.79 36.07,125.11 36.07,125.11 C36.07,125.11 37.21,130.79 37.21,130.79 C37.21,130.79 38.58,150.25 38.58,150.25 C38.58,150.25 45.67,147.92 45.67,147.92 C45.67,147.92 50.6,118.38 50.6,118.38 C50.6,118.38 21.53,118.38 21.53,118.38z "/><path id="_R_G_L_13_G_D_1_P_0" fill="#ffffff" fill-opacity="1" fill-rule="nonzero" d=" M58.37 89.84 C58.37,89.84 43.6,75.93 43.6,75.93 C43.6,75.93 40.38,74.61 40.38,74.61 C40.38,74.61 36.06,74.42 36.06,74.42 C36.06,74.42 31.74,74.61 31.74,74.61 C31.74,74.61 28.53,75.93 28.53,75.93 C28.53,75.93 13.75,89.84 13.75,89.84 C13.75,89.84 19.38,98.91 19.38,98.91 C17.94,110.51 16.26,129.5 16.26,129.5 C16.26,129.5 22.39,134.38 36.06,134.38 C49.74,134.38 55.87,129.5 55.87,129.5 C55.87,129.5 54.5,109.68 53.21,98.16 C53.21,98.16 58.37,89.84 58.37,89.84z "/><path id="_R_G_L_13_G_D_2_P_0" stroke="#b3b3b3" stroke-linecap="round" stroke-linejoin="round" fill="none" stroke-width="1.891" stroke-opacity="1" d=" M58.37 89.84 C58.37,89.84 43.6,75.93 43.6,75.93 C43.6,75.93 40.38,74.61 40.38,74.61 C40.38,74.61 36.06,74.42 36.06,74.42 C36.06,74.42 31.74,74.61 31.74,74.61 C31.74,74.61 28.53,75.93 28.53,75.93 C28.53,75.93 13.75,89.84 13.75,89.84 C13.75,89.84 19.38,98.91 19.38,98.91 C17.94,110.51 16.26,129.5 16.26,129.5 C16.26,129.5 22.39,134.38 36.06,134.38 C49.74,134.38 55.87,129.5 55.87,129.5 C55.87,129.5 54.5,109.68 53.21,98.16 C53.21,98.16 58.37,89.84 58.37,89.84z "/><path id="_R_G_L_13_G_D_3_P_0" fill="#ffffff" fill-opacity="1" fill-rule="nonzero" d=" M14.76 10.91 C14.76,10.91 8.6,17.08 8.6,17.08 C8.6,17.08 11.99,26.87 11.99,26.87 C11.99,26.87 20.75,19.56 20.75,19.56 C20.75,19.56 14.76,10.91 14.76,10.91z "/><path id="_R_G_L_13_G_D_4_P_0" stroke="#808080" stroke-linecap="round" stroke-linejoin="round" fill="none" stroke-width="1.891" stroke-opacity="1" d=" M14.76 10.91 C14.76,10.91 8.6,17.08 8.6,17.08 C8.6,17.08 11.99,26.87 11.99,26.87 C11.99,26.87 20.75,19.56 20.75,19.56 C20.75,19.56 14.76,10.91 14.76,10.91z "/><path id="_R_G_L_13_G_D_5_P_0" fill="#ffffff" fill-opacity="1" fill-rule="nonzero" d=" M57.36 10.91 C57.36,10.91 63.53,17.08 63.53,17.08 C63.53,17.08 60.13,26.87 60.13,26.87 C60.13,26.87 51.38,19.56 51.38,19.56 C51.38,19.56 57.36,10.91 57.36,10.91z "/><path id="_R_G_L_13_G_D_6_P_0" stroke="#808080" stroke-linecap="round" stroke-linejoin="round" fill="none" stroke-width="1.891" stroke-opacity="1" d=" M57.36 10.91 C57.36,10.91 63.53,17.08 63.53,17.08 C63.53,17.08 60.13,26.87 60.13,26.87 C60.13,26.87 51.38,19.56 51.38,19.56 C51.38,19.56 57.36,10.91 57.36,10.91z "/><path id="_R_G_L_13_G_D_7_P_0" fill="#ffffff" fill-opacity="1" fill-rule="nonzero" d=" M18.26 20.77 C18.26,20.77 12.33,4.05 12.33,4.05 C12.33,4.05 26.62,1.89 36.07,1.89 C45.51,1.89 59.8,4.05 59.8,4.05 C59.8,4.05 53.87,20.77 53.87,20.77 C53.87,20.77 18.26,20.77 18.26,20.77z "/><path id="_R_G_L_13_G_D_8_P_0" stroke="#808080" stroke-linecap="round" stroke-linejoin="round" fill="none" stroke-width="1.891" stroke-opacity="1" d=" M18.26 20.77 C18.26,20.77 12.33,4.05 12.33,4.05 C12.33,4.05 26.62,1.89 36.07,1.89 C45.51,1.89 59.8,4.05 59.8,4.05 C59.8,4.05 53.87,20.77 53.87,20.77 C53.87,20.77 18.26,20.77 18.26,20.77z "/><path id="_R_G_L_13_G_D_9_P_0" fill="#7e3847" fill-opacity="1" fill-rule="nonzero" d=" M13.22 62.04 C13.22,62.04 2.25,61.13 1.34,64.63 C0.42,68.13 0.73,76.05 6.51,78.03 C12.3,80.01 23.42,71.64 23.42,71.64 C23.42,71.64 13.22,62.04 13.22,62.04z "/><path id="_R_G_L_13_G_D_10_P_0" fill="#7e3847" fill-opacity="1" fill-rule="nonzero" d=" M58.91 62.04 C58.91,62.04 69.88,61.13 70.79,64.63 C71.7,68.13 71.4,76.05 65.61,78.03 C59.83,80.01 48.71,71.64 48.71,71.64 C48.71,71.64 58.91,62.04 58.91,62.04z "/><path id="_R_G_L_13_G_D_11_P_0" fill="#ffe1cc" fill-opacity="1" fill-rule="nonzero" d=" M70.82 53.62 C69.76,57.63 66.83,60.32 64.27,59.65 C61.71,58.97 60.49,55.18 61.54,51.18 C62.6,47.18 65.53,44.48 68.09,45.15 C70.65,45.83 71.87,49.62 70.82,53.62z "/><path id="_R_G_L_13_G_D_12_P_0" fill="#ffe1cc" fill-opacity="1" fill-rule="nonzero" d=" M1.31 53.62 C2.37,57.63 5.3,60.32 7.86,59.65 C10.42,58.97 11.64,55.18 10.59,51.18 C9.53,47.18 6.6,44.48 4.04,45.15 C1.48,45.83 0.25,49.62 1.31,53.62z "/><path id="_R_G_L_13_G_D_13_P_0" fill="#ffe1cc" fill-opacity="1" fill-rule="nonzero" d=" M66.22 46.73 C66.22,63.38 52.72,76.88 36.07,76.88 C19.41,76.88 5.91,63.38 5.91,46.73 C5.91,30.07 19.41,16.58 36.07,16.58 C52.72,16.58 66.22,30.07 66.22,46.73z "/><path id="_R_G_L_13_G_D_14_P_0" fill="#512712" fill-opacity="1" fill-rule="nonzero" d=" M38.12 53.58 C38.12,53.96 37.2,54.27 36.06,54.27 C34.93,54.27 34.01,53.96 34.01,53.58 C34.01,53.2 34.93,52.9 36.06,52.9 C37.2,52.9 38.12,53.2 38.12,53.58z "/><path id="_R_G_L_13_G_D_15_P_0" fill="#ffffff" fill-opacity="1" fill-rule="nonzero" d=" M33.63 147.92 C31.8,146.09 26.8,144.09 22.8,148.09 C18.8,152.08 22.21,155.23 22.21,155.23 C22.21,155.23 33.01,155.23 33.01,155.23 C35.75,155.23 35.45,149.74 33.63,147.92z "/><path id="_R_G_L_13_G_D_16_P_0" stroke="#b3b3b3" stroke-linecap="round" stroke-linejoin="round" fill="none" stroke-width="1.891" stroke-opacity="1" d=" M33.63 147.92 C31.8,146.09 26.8,144.09 22.8,148.09 C18.8,152.08 22.21,155.23 22.21,155.23 C22.21,155.23 33.01,155.23 33.01,155.23 C35.75,155.23 35.45,149.74 33.63,147.92z "/><path id="_R_G_L_13_G_D_17_P_0" fill="#ffffff" fill-opacity="1" fill-rule="nonzero" d=" M38.5 147.92 C40.33,146.09 45.33,144.09 49.33,148.09 C53.32,152.08 49.92,155.23 49.92,155.23 C49.92,155.23 39.12,155.23 39.12,155.23 C36.38,155.23 36.67,149.74 38.5,147.92z "/><path id="_R_G_L_13_G_D_18_P_0" stroke="#b3b3b3" stroke-linecap="round" stroke-linejoin="round" fill="none" stroke-width="1.891" stroke-opacity="1" d=" M38.5 147.92 C40.33,146.09 45.33,144.09 49.33,148.09 C53.32,152.08 49.92,155.23 49.92,155.23 C49.92,155.23 39.12,155.23 39.12,155.23 C36.38,155.23 36.67,149.74 38.5,147.92z "/><path id="_R_G_L_13_G_D_19_P_0" stroke="#804f1b" stroke-linecap="round" stroke-linejoin="round" fill="none" stroke-width="1.891" stroke-opacity="1" d=" M43.97 37.07 C43.97,37.07 50.52,32.5 55.09,39.81 "/><path id="_R_G_L_13_G_D_20_P_0" stroke="#804f1b" stroke-linecap="round" stroke-linejoin="round" fill="none" stroke-width="1.891" stroke-opacity="1" d=" M28.03 36.4 C28.03,36.4 20.97,31.54 17.33,39.36 "/><path id="_R_G_L_13_G_D_21_P_0" fill="#7e3847" fill-opacity="1" fill-rule="nonzero" d=" M31.64 21.99 C31.64,21.99 37.82,23.37 40.17,31.66 C41.92,37.83 42.25,41.03 42.25,41.03 C42.25,41.03 62.1,42.09 62.1,42.09 C62.1,42.09 63.62,39.81 63.62,39.81 C63.62,39.81 63.62,53.67 63.62,53.67 C63.62,53.67 66.22,45.22 66.22,45.22 C66.22,45.22 68.95,45.15 68.95,45.15 C68.95,45.15 69.86,36.15 66.52,32.8 C66.52,32.8 68.04,12.36 41.43,10.91 C26.31,10.09 20.75,17.67 20.75,17.67 C20.75,17.67 14.43,18.64 8.8,27.32 C2.83,36.52 5.3,45.09 5.3,45.09 C5.3,45.09 7.73,46.05 7.73,46.05 C7.73,46.05 10.02,54.89 10.02,54.89 C10.02,54.89 10.02,45.75 10.02,45.75 C10.02,45.75 26.31,37.22 31.64,21.99z "/><path id="_R_G_L_13_G_D_22_P_0" stroke="#b3b3b3" stroke-linecap="round" stroke-linejoin="round" fill="none" stroke-width="1.891" stroke-opacity="1" d=" M28.53 75.93 C28.53,75.93 28.53,82.91 28.53,82.91 C28.53,82.91 36.06,76.88 36.06,76.88 C36.06,76.88 28.53,75.93 28.53,75.93z "/><path id="_R_G_L_13_G_D_23_P_0" stroke="#b3b3b3" stroke-linecap="round" stroke-linejoin="round" fill="none" stroke-width="1.891" stroke-opacity="1" d=" M43.6 75.93 C43.6,75.93 43.6,82.91 43.6,82.91 C43.6,82.91 36.07,76.88 36.07,76.88 C36.07,76.88 43.6,75.93 43.6,75.93z "/><path id="_R_G_L_13_G_D_24_P_0" stroke="#b3b3b3" stroke-linecap="round" stroke-linejoin="round" fill="none" stroke-width="1.891" stroke-opacity="1" d=" M36.07 76.88 C36.07,76.88 36.07,96.91 36.07,96.91 "/><path id="_R_G_L_13_G_D_25_P_0" stroke="#b3b3b3" stroke-linecap="round" stroke-linejoin="round" fill="none" stroke-width="1.891" stroke-opacity="1" d=" M42.15 85.65 C42.15,86.99 41.06,88.08 39.71,88.08 C38.37,88.08 37.28,86.99 37.28,85.65 C37.28,84.3 38.37,83.21 39.71,83.21 C41.06,83.21 42.15,84.3 42.15,85.65z "/><path id="_R_G_L_13_G_D_26_P_0" stroke="#b3b3b3" stroke-linecap="round" stroke-linejoin="round" fill="none" stroke-width="1.891" stroke-opacity="1" d=" M42.15 93.26 C42.15,94.61 41.06,95.7 39.71,95.7 C38.37,95.7 37.28,94.61 37.28,93.26 C37.28,91.92 38.37,90.82 39.71,90.82 C41.06,90.82 42.15,91.92 42.15,93.26z "/><path id="_R_G_L_13_G_D_27_P_0" fill="#6496dc" fill-opacity="1" fill-rule="nonzero" d=" M49.8 107.59 C49.8,108.8 48.82,109.77 47.61,109.77 C47.61,109.77 23.48,109.77 23.48,109.77 C22.28,109.77 21.3,108.8 21.3,107.59 C21.3,107.59 21.3,75.95 21.3,75.95 C21.3,74.74 22.28,73.77 23.48,73.77 C23.48,73.77 47.61,73.77 47.61,73.77 C48.82,73.77 49.8,74.74 49.8,75.95 C49.8,75.95 49.8,107.59 49.8,107.59z "/><path id="_R_G_L_13_G_D_28_P_0" fill="#ffe1cc" fill-opacity="1" fill-rule="nonzero" d=" M27 96.12 C27,99.06 24.61,101.45 21.66,101.45 C18.72,101.45 16.33,99.06 16.33,96.12 C16.33,93.17 18.72,90.79 21.66,90.79 C24.61,90.79 27,93.17 27,96.12z "/><path id="_R_G_L_13_G_D_29_P_0" fill="#ffe1cc" fill-opacity="1" fill-rule="nonzero" d=" M44.46 95.43 C44.46,98.38 46.85,100.76 49.79,100.76 C52.73,100.76 55.12,98.38 55.12,95.43 C55.12,92.49 52.73,90.1 49.79,90.1 C46.85,90.1 44.46,92.49 44.46,95.43z "/><path id="_R_G_L_13_G_D_30_P_0" fill="#ffe1cc" fill-opacity="1" fill-rule="nonzero" d=" M14.36 92.66 C14.36,92.66 8.31,99.67 10.71,103.31 C16.42,111.99 20.51,99.22 20.51,99.22 C20.51,99.22 14.36,92.66 14.36,92.66z "/><path id="_R_G_L_13_G_D_31_P_0" fill="#ffe1cc" fill-opacity="1" fill-rule="nonzero" d=" M57.99 91.96 C57.99,91.96 63.05,98.71 60.78,102.43 C55.38,111.31 50.47,99.22 50.47,99.22 C50.47,99.22 57.99,91.96 57.99,91.96z "/></g><g id="_R_G_L_12_G_M"><g id="_R_G_L_12_G" transform=" translate(65, 64.5) translate(-12.5, -4.5)"><path id="_R_G_L_12_G_D_0_P_0" stroke="#ea6157" stroke-linecap="round" stroke-linejoin="round" fill="none" stroke-width="1.891" stroke-opacity="1" d=" M22.47 1.89 C22.47,1.89 19.02,6.81 12.18,6.81 C5.33,6.81 1.89,1.89 1.89,1.89 "/></g></g><g id="_R_G_L_11_G_M"><g id="_R_G_L_11_G" transform=" translate(65, 65.5) translate(-10.5, -5.5)"><path id="_R_G_L_11_G_D_0_P_0" fill="#ea6157" fill-opacity="1" fill-rule="nonzero" d=" M10.19 2.04 C15.36,2.04 19.82,0.25 19.82,0.25 C19.82,5.65 15.44,10.04 10.04,10.04 C4.63,10.04 0.25,5.65 0.25,0.25 C0.25,0.25 5.01,2.04 10.19,2.04z "/></g></g><g id="_R_G_L_10_G_M"><g id="_R_G_L_10_G" transform=" translate(106, 14) translate(-6, -8)"><path id="_R_G_L_10_G_D_0_P_0" stroke="#f7931e" stroke-linecap="round" stroke-linejoin="round" fill="none" stroke-width="2.315" stroke-opacity="1" d=" M1.16 4.86 C1.16,4.86 3.94,1.16 3.94,1.16 "/><path id="_R_G_L_10_G_D_1_P_0" stroke="#f7931e" stroke-linecap="round" stroke-linejoin="round" fill="none" stroke-width="2.315" stroke-opacity="1" d=" M5.7 14.71 C5.7,14.71 10.52,14.43 10.52,14.43 "/><path id="_R_G_L_10_G_D_2_P_0" stroke="#f7931e" stroke-linecap="round" stroke-linejoin="round" fill="none" stroke-width="2.315" stroke-opacity="1" d=" M4.02 9.79 C4.02,9.79 8.25,7.19 8.25,7.19 "/></g></g><g id="_R_G_L_9_G_M"><g id="_R_G_L_9_G" transform=" translate(106, 14) translate(-6, -8)"><path id="_R_G_L_9_G_D_0_P_0" stroke="#f7931e" stroke-linecap="round" stroke-linejoin="round" fill="none" stroke-width="2.315" stroke-opacity="1" d=" M1.16 4.86 C1.16,4.86 3.94,1.16 3.94,1.16 "/><path id="_R_G_L_9_G_D_1_P_0" stroke="#f7931e" stroke-linecap="round" stroke-linejoin="round" fill="none" stroke-width="2.315" stroke-opacity="1" d=" M5.7 14.71 C5.7,14.71 10.52,14.43 10.52,14.43 "/><path id="_R_G_L_9_G_D_2_P_0" stroke="#f7931e" stroke-linecap="round" stroke-linejoin="round" fill="none" stroke-width="2.315" stroke-opacity="1" d=" M4.02 9.79 C4.02,9.79 8.25,7.19 8.25,7.19 "/></g></g><g id="_R_G_L_8_G_M"><g id="_R_G_L_8_G" transform=" translate(65, 64.5) translate(-12.5, -4.5)"><path id="_R_G_L_8_G_D_0_P_0" stroke="#ea6157" stroke-linecap="round" stroke-linejoin="round" fill="none" stroke-width="1.891" stroke-opacity="1" d=" M22.47 1.89 C22.47,1.89 19.02,6.81 12.18,6.81 C5.33,6.81 1.89,1.89 1.89,1.89 "/></g></g><g id="_R_G_L_7_G_M"><g id="_R_G_L_7_G" transform=" translate(65, 65.5) translate(-10.5, -5.5)"><path id="_R_G_L_7_G_D_0_P_0" fill="#ea6157" fill-opacity="1" fill-rule="nonzero" d=" M10.19 2.04 C15.36,2.04 19.82,0.25 19.82,0.25 C19.82,5.65 15.44,10.04 10.04,10.04 C4.63,10.04 0.25,5.65 0.25,0.25 C0.25,0.25 5.01,2.04 10.19,2.04z "/></g></g><g id="_R_G_L_6_G_M"><g id="_R_G_L_6_G" transform=" translate(65, 64.5) translate(-12.5, -4.5)"><path id="_R_G_L_6_G_D_0_P_0" stroke="#ea6157" stroke-linecap="round" stroke-linejoin="round" fill="none" stroke-width="1.891" stroke-opacity="1" d=" M22.47 1.89 C22.47,1.89 19.02,6.81 12.18,6.81 C5.33,6.81 1.89,1.89 1.89,1.89 "/></g></g><g id="_R_G_L_5_G_M"><g id="_R_G_L_5_G" transform=" translate(65, 65.5) translate(-10.5, -5.5)"><path id="_R_G_L_5_G_D_0_P_0" fill="#ea6157" fill-opacity="1" fill-rule="nonzero" d=" M10.19 2.04 C15.36,2.04 19.82,0.25 19.82,0.25 C19.82,5.65 15.44,10.04 10.04,10.04 C4.63,10.04 0.25,5.65 0.25,0.25 C0.25,0.25 5.01,2.04 10.19,2.04z "/></g></g><g id="_R_G_L_4_G_M"><g id="_R_G_L_4_G" transform=" translate(65, 50) translate(-20, -6)"><path id="_R_G_L_4_G_D_0_P_0" stroke="#4f2510" stroke-linecap="round" stroke-linejoin="round" fill="none" stroke-width="1.644" stroke-opacity="1" d=" M4.11 4.11 C4.11,4.11 7.13,7.83 10.32,4.21 "/><path id="_R_G_L_4_G_D_1_P_0" stroke="#4f2510" stroke-linecap="round" stroke-linejoin="round" fill="none" stroke-width="1.644" stroke-opacity="1" d=" M28.73 4.11 C28.73,4.11 31.75,7.83 34.94,4.21 "/></g></g><g id="_R_G_L_3_G_M"><g id="_R_G_L_3_G" transform=" translate(65, 48) translate(-15, -5)"><path id="_R_G_L_3_G_D_0_P_0" fill="#4f2510" fill-opacity="1" fill-rule="nonzero" d=" M4.82 4.59 C4.82,6.99 3.8,8.93 2.53,8.93 C1.27,8.93 0.25,6.99 0.25,4.59 C0.25,2.19 1.27,0.25 2.53,0.25 C3.8,0.25 4.82,2.19 4.82,4.59z "/><path id="_R_G_L_3_G_D_1_P_0" fill="#4f2510" fill-opacity="1" fill-rule="nonzero" d=" M24.87 4.59 C24.87,6.99 25.9,8.93 27.16,8.93 C28.42,8.93 29.45,6.99 29.45,4.59 C29.45,2.19 28.42,0.25 27.16,0.25 C25.9,0.25 24.87,2.19 24.87,4.59z "/></g></g><g id="_R_G_L_2_G_M"><g id="_R_G_L_2_G" transform=" translate(65, 48) translate(-15, -5)"><path id="_R_G_L_2_G_D_0_P_0" fill="#4f2510" fill-opacity="1" fill-rule="nonzero" d=" M4.82 4.59 C4.82,6.99 3.8,8.93 2.53,8.93 C1.27,8.93 0.25,6.99 0.25,4.59 C0.25,2.19 1.27,0.25 2.53,0.25 C3.8,0.25 4.82,2.19 4.82,4.59z "/><path id="_R_G_L_2_G_D_1_P_0" fill="#4f2510" fill-opacity="1" fill-rule="nonzero" d=" M24.87 4.59 C24.87,6.99 25.9,8.93 27.16,8.93 C28.42,8.93 29.45,6.99 29.45,4.59 C29.45,2.19 28.42,0.25 27.16,0.25 C25.9,0.25 24.87,2.19 24.87,4.59z "/></g></g><g id="_R_G_L_1_G_M"><g id="_R_G_L_1_G" transform=" translate(65, 50) translate(-20, -6)"><path id="_R_G_L_1_G_D_0_P_0" stroke="#4f2510" stroke-linecap="round" stroke-linejoin="round" fill="none" stroke-width="1.644" stroke-opacity="1" d=" M4.11 4.11 C4.11,4.11 7.13,7.83 10.32,4.21 "/><path id="_R_G_L_1_G_D_1_P_0" stroke="#4f2510" stroke-linecap="round" stroke-linejoin="round" fill="none" stroke-width="1.644" stroke-opacity="1" d=" M28.73 4.11 C28.73,4.11 31.75,7.83 34.94,4.21 "/></g></g><g id="_R_G_L_0_G_M"><g id="_R_G_L_0_G" transform=" translate(65, 48) translate(-15, -5)"><path id="_R_G_L_0_G_D_0_P_0" fill="#4f2510" fill-opacity="1" fill-rule="nonzero" d=" M4.82 4.59 C4.82,6.99 3.8,8.93 2.53,8.93 C1.27,8.93 0.25,6.99 0.25,4.59 C0.25,2.19 1.27,0.25 2.53,0.25 C3.8,0.25 4.82,2.19 4.82,4.59z "/><path id="_R_G_L_0_G_D_1_P_0" fill="#4f2510" fill-opacity="1" fill-rule="nonzero" d=" M24.87 4.59 C24.87,6.99 25.9,8.93 27.16,8.93 C28.42,8.93 29.45,6.99 29.45,4.59 C29.45,2.19 28.42,0.25 27.16,0.25 C25.9,0.25 24.87,2.19 24.87,4.59z "/></g></g></g><g id="time_group"/></svg>