<?xml version="1.0" encoding="UTF-8"?><svg id="_レイヤー_2" xmlns="http://www.w3.org/2000/svg" viewBox="0 0 240.96 163.59"><defs><style>.cls-1{fill:none;stroke:#f46600;stroke-miterlimit:10;stroke-width:3px;}.cls-2{fill:#f46600;}</style></defs><g id="_レイヤー_1-2"><g><g id="_グループ_5968"><g id="_グループ_5967"><path id="_パス_10564" class="cls-2" d="M126.69,29.32c2.21-1.21,4.11-2.95,5.51-5.06,1.36-2.07,2.21-4.43,2.47-6.88,15.61-2.91,30.7-5.27,42.88-7l16.48-2.19c2.27-.28,4.27-.52,5.89-.69l-.81-7.27c-10.93,1.21-37.21,4.66-65.34,9.89-3.06-8.09-12.11-12.17-20.2-9.11-6.34,2.4-10.41,8.6-10.1,15.36-27.91,6.34-53.4,13.59-63.91,16.8l2.14,6.99c.71-.22,1.5-.46,2.36-.71l17.02-4.87c12.23-3.37,27.93-7.45,44.45-11.2,1.21,2.15,2.93,3.99,4.99,5.34,2.42,1.57,5.22,2.44,8.1,2.52,0,0,2.99,.4,8.07-1.94Zm-76.23,8.26c1.68-.48,3.46-.99,5.38-1.54m70.25-15.8c-2.54,3.85-7.72,4.92-11.57,2.39-.43-.28-.83-.61-1.2-.96-1.22-1.17-2.05-2.68-2.39-4.33-.18-.86-.22-1.74-.12-2.61,.15-1.31,.6-2.57,1.32-3.67,2.53-3.86,7.71-4.93,11.57-2.39,1.1,.73,2.02,1.7,2.67,2.85,.44,.76,.75,1.58,.92,2.44,.34,1.65,.18,3.37-.48,4.93-.2,.47-.44,.92-.72,1.36"/></g></g><path class="cls-2" d="M146.65,148.94c-1.72-.4-3.29-1.29-4.51-2.57-.98-1-1.81-2.13-2.48-3.35-.93-1.68-1.66-3.46-2.19-5.3-.22-.74-.36-1.36-.45-1.78-.05-.21-.08-.37-.1-.47l-.02-.1h0s-.49-3.08-.49-3.08h-13.75V26.25c.34-.08,.67-.17,1-.27l-8.3,.27v106.03h-13.76l-.49,3.08c-.45,2.34-1.21,4.6-2.27,6.74-.78,1.63-1.83,3.11-3.1,4.4-1.2,1.22-2.73,2.07-4.39,2.45l-2.86,.64v14.01h61.04v-14.01l-2.86-.64Zm-4.44,7.35h-46.43v-1.18c1.95-.85,3.73-2.07,5.23-3.57,1.44-1.47,2.68-3.12,3.68-4.93,1.21-2.17,2.16-4.47,2.84-6.85,.02-.06,.03-.11,.05-.17h22.81c.52,1.84,1.2,3.63,2.02,5.36,1.14,2.44,2.67,4.66,4.55,6.59,1.51,1.51,3.28,2.72,5.24,3.57v1.18Z"/><g><path id="_パス_10563" class="cls-2" d="M47.83,81.07h-6.13l4.71,7.33h-5.67v5.63h9.29l1,1.56v3.71h-10.29v5.58h10.28v7.66h6.39v-7.66h10.29v-5.58h-10.29v-3.72l.99-1.55h9.29v-5.63h-5.67l4.71-7.33h-6.13l-6.4,9.94-6.38-9.94Z"/><g><path class="cls-2" d="M44.92,49.13l.94-.07h0c-.32,.02-.63,.04-.94,.07Z"/><path class="cls-2" d="M92.67,116.95L62.57,33.3l-5.41,.41,30.19,83.87H21.52L51.55,34.13l-5.7,.43L16.2,116.95l-.22,.63c4.96,9.16,20.21,15.84,38.25,15.84s33.28-6.68,38.25-15.84l.2-.63Z"/></g></g><g><path class="cls-2" d="M223.6,88.53L193.86,5.92l-5.7-.41,30.11,83.65h-65.84L182.69,5.12l-5.41-.39-30.15,83.8-.22,.63c4.97,9.16,20.2,15.84,38.25,15.84s33.28-6.68,38.25-15.84l.2-.63Z"/><path id="_パス_10565" class="cls-2" d="M193.96,53.99c-4.4-.07-8.17,3.16-8.77,7.52-.6-4.36-4.37-7.59-8.77-7.52-5.06-.1-9.25,3.8-9.25,10.91,0,9.12,10.32,13.34,17.38,20.15,.25,.24,.19,.23,.19,.23,.19,.25,.56,.3,.81,.11,.04-.03,.08-.07,.11-.11,0,0-.06,0,.19-.23,7.05-6.82,17.38-11.03,17.38-20.15,0-7.11-4.18-11-9.25-10.91"/></g><g><path class="cls-1" d="M15.56,129.91c-7.89-4.92-10.29-15.3-5.37-23.19"/><path class="cls-1" d="M12.09,134.91c-10.54-6.58-13.76-20.46-7.18-31"/></g><g><path class="cls-1" d="M231.73,78.03c3.9,8.44,.23,18.44-8.21,22.34"/><path class="cls-1" d="M237.37,75.74c5.22,11.28,.3,24.65-10.98,29.87"/></g></g></g></svg>