<?xml version="1.0" encoding="UTF-8"?><svg xmlns="http://www.w3.org/2000/svg" viewBox="0 0 474.98 70.09"><defs><style>.d{fill:#f46600;}.e{fill:#fb9a00;}</style></defs><g id="a"/><g id="b"><g id="c"><g><g><path class="d" d="M63.24,14.51c-.93-2.85-2.46-2.85-3.4,0l-8.3,23.88h19.62l-7.92-23.88Z"/><path class="d" d="M16.24,42.05c3.78-.2,6.99,.68,9.51,1.83l-5.71-5.71c-1.72-1.72-1.72-4.54,0-6.27l13.61-13.61c1.73-1.72,4.54-1.72,6.27,0l11.17,11.17,5.49-15.81-9.35-9.35c-5.75-5.74-15.14-5.74-20.89,0L6.06,24.6c-5.42,5.43-5.72,14.11-.9,19.9,4.62-1.91,9.25-2.35,11.09-2.44Z"/><path class="e" d="M8.94,49.84C2.84,49.6-.2,52.19,.01,51.94c4.52-5.11,12.82-6.37,16.41-6.56,5.74-.3,9.89,2.34,11.91,3.99,2.19,1.78,4.87,3.71,8.46,3.71,1.13,0,2.27-.43,3.13-1.29l10.01-10h20.29c-.68,1.34-1.58,2.59-2.69,3.7l-4.41,4.41-15.88,15.88c-5.75,5.75-15.14,5.75-20.89,0l-14.97-14.97c-.39-.42-1.38-.93-2.44-.97Z"/></g><g><g><path d="M91.87,34.46l-1.76,1.69v13.69h-4.46V20.29h4.46v12.98l13.73-12.98h3.38l-12,11.36,13.13,18.19h-5.85l-10.62-15.38Z"/><path d="M139.99,20.29h5.33l13.95,25.84V20.29h4.46v29.56h-5.4l-13.88-25.62v25.62h-4.46V20.29Z"/><path d="M175.02,40.13l5.25-17.03,5.29,17.03,.6,1.99,2.47,7.73h4.8l-9.94-29.59h-6.45l-9.79,29.59h4.73l2.4-7.73,.64-1.99Z"/><path d="M118.09,40.13l5.25-17.03,5.29,17.03,.6,1.99,2.47,7.73h4.8l-9.94-29.59h-6.45l-9.79,29.59h4.72l2.4-7.73,.64-1.99Z"/><path d="M196.67,20.29h5.89l8.33,27.19,8.33-27.19h5.89v29.56h-4.46V23.66l-7.99,26.18h-3.56l-7.95-25.99v25.99h-4.46V20.29Z"/><path d="M229.83,20.29h4.46v29.56h-4.46V20.29Z"/><path d="M263.69,40.95c-.23,1.39-.49,3.11-1.91,5.1-1.88,2.63-4.88,4.35-9.75,4.35-10.16,0-13.35-7.39-13.35-15.23s3-15.45,13.28-15.45c4.09,0,6.86,1.24,8.85,3.15,1.69,1.65,2.18,3,2.7,5.7h-4.73c-.64-3.75-1.91-6.86-7.13-6.86-1.2,0-4.09,0-6,3.38-1.5,2.7-1.88,6.53-1.88,9.98,0,4.28,.53,7.5,1.88,9.98,1.88,3.38,4.84,3.38,6.22,3.38,1.69,0,3.45-.38,4.76-1.72,1.91-1.95,2.14-4.35,2.25-5.74h4.8Z"/><path d="M280.23,20.29h5.33l13.95,25.84V20.29h4.46v29.56h-5.4l-13.88-25.62v25.62h-4.46V20.29Z"/><path d="M313.09,47.85h15.83v1.99h-20.29V20.29h19.84v1.99h-15.38v11.59h14.48v1.99h-14.48v12Z"/><path d="M345.05,22.27v27.57h-4.46V22.27h-9.53v-1.99h23.52v1.99h-9.53Z"/></g><path d="M356.86,20.29h4.77l5.57,26.18,5.57-26.18h4.15l5.57,26.25,5.61-26.25h4.72l-6.88,29.56h-5.42l-5.69-26.86-5.68,26.86h-5.42l-6.88-29.56Z"/><path d="M408.72,21.75c6.3,0,7.87,5.14,7.87,13.47,0,6.3-.84,13.13-7.84,13.13-5.3,0-8.06-3.04-8.06-13.39,0-9.75,2.46-13.2,8.03-13.2Zm-.04-2.06c-9.64,0-12.91,7.47-12.91,15.49,0,7.31,2.77,15.23,12.95,15.23,6.87,0,9.45-3.75,10.45-5.29,1.42-2.21,2.34-6,2.34-9.64,0-2.96-.54-7.61-2.34-10.43-2.31-3.64-5.96-5.37-10.49-5.37Z"/><path d="M430,22.27h7.76c4.57,0,5.22,3.71,5.22,5.93,0,1.39-.31,4.01-1.5,5.07-1.38,1.2-2.73,1.35-3.61,1.35h-7.88v-12.34Zm7.88,14.33c3.8,0,4.57,2.89,4.8,3.79,.19,.79,.46,5.06,.46,5.74v3.71h4.92l-.08-2.51c-.15-8.07-.96-10.62-7.22-11.66,2.04-.38,4.72-.94,6.11-3.49,.62-1.16,1.04-2.62,1.04-4.05,0-4.72-3.73-7.84-8.95-7.84h-13.52v29.56h4.57v-13.24h7.88Z"/><path d="M458.12,34.46l-1.81,1.69v13.69h-4.57V20.29h4.57v12.98l14.06-12.98h3.46l-12.29,11.36,13.44,18.19h-5.99l-10.87-15.38Z"/></g></g></g></g></svg>